<?xml version="1.0" encoding="utf-8"?>
<!-- Generator: Adobe Illustrator 21.0.0, SVG Export Plug-In . SVG Version: 6.00 Build 0)  -->
<svg version="1.1" id="Layer_1" xmlns="http://www.w3.org/2000/svg" xmlns:xlink="http://www.w3.org/1999/xlink" x="0px" y="0px"
	 viewBox="0 0 32 32" style="enable-background:new 0 0 32 32;" xml:space="preserve">
<style type="text/css">
	.st0{fill:#0887C9;}
	.st1{fill:#FFFFFF;}
</style>
<g>
	<circle class="st0" cx="16" cy="16" r="16"/>
	<g>
		<path class="st1" d="M21,10.7L9.5,15.2c-0.3,0.1-0.3,0.5,0,0.6l2.8,1.1l1.1,3.5c0.1,0.2,0.4,0.3,0.5,0.2l1.6-1.3
			c0.2-0.2,0.4-0.2,0.5,0l2.8,2c0.2,0.2,0.5,0,0.5-0.2l2-9.9C21.4,10.8,21.2,10.6,21,10.7z M18.8,13l-4.5,4.2
			c-0.2,0.2-0.2,0.4-0.3,0.5l-0.2,1.1c0,0.2-0.2,0.2-0.3,0l-0.6-2c-0.1-0.2,0-0.5,0.2-0.6l5.4-3.4C18.7,12.8,18.9,13,18.8,13z"/>
	</g>
</g>
</svg>
